#!OML:ASF F:\VICON\USERDATA\INSTALL\Justin_Nancy\Justin_Nancy.ASF
:FULLY-SPECIFIED
:DEGREES
293
root 0.186863 17.3756 4.2124 -1.37766 -3.37342 5.29403
lowerback 7.79599 1.09266 -4.58868
upperback 0.178191 1.03763 -0.104523
thorax -4.27192 0.605769 2.35261
lowerneck -15.6715 -5.23698 -9.42032
upperneck 22.4333 -6.78557 7.58087
head 10.3507 -3.07792 3.33376
rclavicle 8.72168e-015 -1.90833e-014
rhumerus -31.6241 -18.6194 -77.6312
rradius 30.4692
rwrist 7.86694
rhand -15.0304 12.0217
rfingers 7.12502
rthumb 11.1354 -17.6629
lclavicle 8.72168e-015 -1.90833e-014
lhumerus -33.8701 12.1678 80.094
lradius 21.4131
lwrist -15.981
lhand -10.0899 27.3706
lfingers 7.12502
lthumb 15.8971 56.7381
rfemur -20.9947 -1.84825 16.1682
rtibia 75.9859
rfoot 0.43147 -3.84404
rtoes 12.0408
lfemur -13.4674 -1.12341 -29.2002
ltibia 30.4721
lfoot -10.6277 2.97547
ltoes -0.209058
294
root 0.182143 17.3709 4.39143 -1.39082 -2.95498 5.73012
lowerback 7.65529 0.936144 -5.06229
upperback 0.242339 0.794718 -0.159495
thorax -4.11388 0.489696 2.59173
lowerneck -15.7381 -5.27487 -9.51689
upperneck 22.4597 -6.7955 7.52958
head 10.3762 -3.09498 3.32913
rclavicle 9.44227e-016 2.78299e-015
rhumerus -31.7144 -18.7602 -77.5329
rradius 30.2354
rwrist 7.77625
rhand -14.9716 12.4702
rfingers 7.12502
rthumb 11.1921 -17.2112
lclavicle 9.44227e-016 2.78299e-015
lhumerus -33.4096 11.4753 80.6174
lradius 21.7568
lwrist -15.5887
lhand -10.1496 27.8595
lfingers 7.12502
lthumb 15.8395 57.2316
rfemur -22.366 -2.38111 15.7494
rtibia 75.8167
rfoot -1.24401 -3.85715
rtoes 10.6851
lfemur -12.7441 -1.49962 -29.7662
ltibia 30.4896
lfoot -11.3058 3.1864
ltoes 0.377918
295
root 0.182811 17.3576 4.56096 -1.3027 -2.6999 5.7623
lowerback 7.4556 0.763751 -5.10959
upperback 0.256076 0.576386 -0.094854
thorax -3.97034 0.379415 2.71174
lowerneck -15.7001 -5.26329 -9.60744
upperneck 22.4419 -6.73243 7.43341
head 10.3564 -3.08565 3.31904
rclavicle -8.22472e-015 -6.36111e-015
rhumerus -31.6573 -18.9196 -77.4366
rradius 29.8612
rwrist 7.84045
rhand -14.7425 12.3829
rfingers 7.12502
rthumb 11.4131 -17.2864
lclavicle -8.22472e-015 -6.36111e-015
lhumerus -33.0568 10.8797 81.0867
lradius 22.0956
lwrist -15.1486
lhand -10.0192 28.2632
lfingers 7.12502
lthumb 15.9652 57.6252
rfemur -23.8138 -2.7561 15.816
rtibia 75.4573
rfoot -2.80644 -4.02079
rtoes 8.51961
lfemur -12.1891 -1.78629 -29.8947
ltibia 30.5422
lfoot -11.9747 3.39778
ltoes 1.58805
296
root 0.184445 17.3434 4.73565 -1.29444 -2.53463 5.87483
lowerback 7.33648 0.67828 -5.19559
upperback 0.340824 0.463753 -0.130159
thorax -3.80594 0.319203 2.73661
lowerneck -15.8995 -5.24078 -9.61885
upperneck 22.503 -6.72735 7.60578
head 10.4229 -3.06022 3.38209
rclavicle -4.89507e-015 3.97569e-015
rhumerus -31.7561 -19.0438 -77.4538
rradius 29.7195
rwrist 7.82435
rhand -14.7515 12.2001
rfingers 7.12502
rthumb 11.4044 -17.4698
lclavicle -4.89507e-015 3.97569e-015
lhumerus -32.2821 10.395 81.4095
lradius 22.0818
lwrist -15.0268
lhand -9.78468 28.164
lfingers 7.12502
lthumb 16.191 57.5078
rfemur -25.1235 -3.01542 15.7877
rtibia 74.8904
rfoot -4.23326 -4.2689
rtoes 6.38397
lfemur -11.5941 -2.0212 -30.1156
ltibia 30.7082
lfoot -12.592 3.67661
ltoes 2.50629
297
root 0.180016 17.3274 4.91215 -1.32734 -2.35227 5.85108
lowerback 7.39868 0.608417 -5.19597
upperback 0.350371 0.368085 -0.108943
thorax -3.82278 0.272185 2.76891
lowerneck -16.0923 -5.1686 -9.62294
upperneck 22.608 -6.65378 7.76362
head 10.4963 -3.00446 3.45011
rclavicle 8.69683e-016 1.11319e-014
rhumerus -32.0524 -19.258 -77.3547
rradius 29.582
rwrist 8.0106
rhand -14.8699 12.7403
rfingers 7.12502
rthumb 11.2902 -16.9359
lclavicle 8.69683e-016 1.11319e-014
lhumerus -31.6086 9.94219 81.6724
lradius 21.9776
lwrist -14.9943
lhand -9.77024 27.5383
lfingers 7.12502
lthumb 16.2049 56.881
rfemur -26.3017 -3.18851 15.9499
rtibia 74.1087
rfoot -5.18605 -4.68881
rtoes 5.32443
lfemur -11.0026 -2.16677 -30.1746
ltibia 30.9615
lfoot -13.0456 3.90998
ltoes 2.47065
298
root 0.176535 17.3066 5.08542 -1.29736 -2.12474 5.89895
lowerback 7.35585 0.495421 -5.29769
upperback 0.320009 0.212181 -0.0772287
thorax -3.81746 0.197392 2.87581
lowerneck -16.0409 -5.10101 -9.51261
upperneck 22.6211 -6.56172 7.64012
head 10.473 -2.96816 3.4014
rclavicle -9.7156e-015 1.27222e-014
rhumerus -32.3055 -19.2794 -77.2685
rradius 29.4507
rwrist 8.0716
rhand -14.6908 13.3276
rfingers 7.12502
rthumb 11.463 -16.339
lclavicle -9.7156e-015 1.27222e-014
lhumerus -31.2445 9.25758 81.9966
lradius 22.2225
lwrist -14.5168
lhand -9.81225 26.8435
lfingers 7.12502
lthumb 16.1644 56.1895
rfemur -27.4451 -3.4337 16.0188
rtibia 73.1542
rfoot -5.9912 -5.16003
rtoes 4.94374
lfemur -10.4978 -2.3077 -30.3164
ltibia 31.1809
lfoot -13.4064 4.08527
ltoes 2.31553
